# xmcd
#
# Track frame offsets:
#   150
#   20015
#   36520
#   51303
#   63717
#   79130
#   96593
#   114122
#   127760
#   147311
#   166907
#   184190
#   202476
#   219143
#   236014
#   249940
#   264331
#   280759
#
# Disc length: 3874 seconds
#
# Revision: 0
# Processed by: cddbd v1.4PL0 Copyright (c) Steve Scherf et al.
# Submitted via: uFREEDB ActiveX Control 1.5
#
DISCID=0a0f2012
DTITLE=Milionário and José Rico - O Melhor de
DYEAR=2002
DGENRE=Country
TTITLE0=Sonhei com você
TTITLE1=Sonho de um Caminhoneiro
TTITLE2=Boneca Cobiçada
TTITLE3=Águas da Saudade
TTITLE4=Jogo do Amor
TTITLE5=Meu Mundo Vazio
TTITLE6=Praia Deserta
TTITLE7=Ilusão Perdida
TTITLE8=Sonho Alto
TTITLE9=Mãe de Leite
TTITLE10=Heroi da Velocidade
TTITLE11=Vai e Vem do Carreiro
TTITLE12=Quem Disse que te Esqueci
TTITLE13=Aprendi a Viver
TTITLE14=Vá Pro Inferno com seu Amor
TTITLE15=Denguinho
TTITLE16=Viva a Vida
TTITLE17=Estrada da Vida
EXTD=
EXTT0=
EXTT1=
EXTT2=
EXTT3=
EXTT4=
EXTT5=
EXTT6=
EXTT7=
EXTT8=
EXTT9=
EXTT10=
EXTT11=
EXTT12=
EXTT13=
EXTT14=
EXTT15=
EXTT16=
EXTT17=
PLAYORDER=
